<svg width="640" height="480" xmlns="http://www.w3.org/2000/svg" xmlns:xlink="http://www.w3.org/1999/xlink" clip-rule="evenodd">
 <!-- Created with Method Draw - http://github.com/duopixel/Method-Draw/ -->
 <g>
  <title>Layer 1</title>
  <g id="svg_280">
   <g transform="matrix(0.0475271, 0, 0, 0.0514271, -2088.95, -1657.51)" id="svg_136">
    <metadata id="svg_1"/>
    <g id="svg_135">
     <g id="svg_91">
      <polygon id="svg_2" points="50922.111328125,32386.88720703125 48451.181640625,33021.50439453125 48448.322265625,33010.29736328125 50919.251953125,32375.67626953125 " fill-rule="nonzero" fill="#304451"/>
      <polygon id="svg_3" points="48381.970703125,33138.88720703125 49064.451171875,33990.12548828125 49055.431640625,33997.37548828125 48372.951171875,33146.13720703125 " fill-rule="nonzero" fill="#304451"/>
      <polygon id="svg_4" points="49100.470703125,33979.26611328125 50956.462890625,32508.28564453125 50963.681640625,32517.36376953125 49107.689453125,33988.34423828125 " fill-rule="nonzero" fill="#304451"/>
      <line id="svg_5" y2="33773.505879" x2="50621.061172" y1="32554.255879" x1="51025.291172" fill="none"/>
      <polygon id="svg_6" points="51030.759765625,32556.07470703125 50626.548828125,33775.31689453125 50615.580078125,33771.69580078125 51019.798828125,32552.44580078125 " fill-rule="nonzero" fill="#304451"/>
      <line id="svg_7" y2="32511.865879" x2="51186.211172" y1="33655.825879" x1="51863.531172" fill="none"/>
      <polygon id="svg_8" points="51858.541015625,33658.76611328125 51181.232421875,32514.80517578125 51191.189453125,32508.92626953125 51868.509765625,33652.88720703125 " fill-rule="nonzero" fill="#304451"/>
      <polygon id="svg_9" points="51228.603515625,32454.60595703125 53295.892578125,33077.63720703125 53292.572265625,33088.75439453125 51225.283203125,32465.72705078125 " fill-rule="nonzero" fill="#304451"/>
      <polygon id="svg_10" points="53268.759765625,33165.29736328125 52109.560546875,33722.81689453125 52104.560546875,33712.39501953125 53263.759765625,33154.87548828125 " fill-rule="nonzero" fill="#304451"/>
      <polygon id="svg_11" points="53078.341796875,34391.09814453125 53336.310546875,33205.74658203125 53347.650390625,33208.17626953125 53089.669921875,34393.53564453125 " fill-rule="nonzero" fill="#304451"/>
      <polygon id="svg_12" points="52093.701171875,33855.48486328125 53003.283203125,34412.17626953125 52997.240234375,34422.04345703125 52087.669921875,33865.35595703125 " fill-rule="nonzero" fill="#304451"/>
      <polygon id="svg_13" points="51969.041015625,33927.77783203125 51951.521484375,35071.36376953125 51939.939453125,35071.24658203125 51957.462890625,33927.65673828125 " fill-rule="nonzero" fill="#304451"/>
      <polygon id="svg_14" points="52083.603515625,35158.80517578125 53002.791015625,34492.46533203125 53009.580078125,34501.85595703125 52090.392578125,35168.18408203125 " fill-rule="nonzero" fill="#304451"/>
      <polygon id="svg_15" points="53062.439453125,34485.59814453125 52776.033203125,35452.82470703125 52764.912109375,35449.57470703125 53051.322265625,34482.33642578125 " fill-rule="nonzero" fill="#304451"/>
      <line id="svg_16" y2="35522.725879" x2="52592.561172" y1="35285.125879" x1="52088.051172" fill="none"/>
      <polygon id="svg_17" points="52090.521484375,35279.88720703125 52595.021484375,35517.49658203125 52590.091796875,35527.97705078125 52085.580078125,35290.36376953125 " fill-rule="nonzero" fill="#304451"/>
      <line id="svg_18" y2="35316.235879" x2="54953.531172" y1="35596.675879" x1="52880.811172" fill="none"/>
      <polygon id="svg_19" points="52880.033203125,35590.94580078125 54952.740234375,35310.49658203125 54954.298828125,35321.98486328125 52881.591796875,35602.42626953125 " fill-rule="nonzero" fill="#304451"/>
      <polygon id="svg_20" points="53107.501953125,34466.78564453125 54894.240234375,35288.42626953125 54889.423828125,35298.93408203125 53102.681640625,34477.29345703125 " fill-rule="nonzero" fill="#304451"/>
      <polygon id="svg_21" points="53431.732421875,33183.65673828125 54912.869140625,35248.87548828125 54903.423828125,35255.63720703125 53422.291015625,33190.41455078125 " fill-rule="nonzero" fill="#304451"/>
      <line id="svg_22" y2="33789.505879" x2="51809.851172" y1="33896.585879" x1="50772.161172" fill="none"/>
      <polygon id="svg_23" points="50771.572265625,33890.82470703125 51809.251953125,33783.75439453125 51810.439453125,33795.27783203125 50772.759765625,33902.34423828125 " fill-rule="nonzero" fill="#304451"/>
      <polygon id="svg_24" points="49165.798828125,33987.96533203125 50467.830078125,33941.16455078125 50468.220703125,33952.74658203125 49166.201171875,33999.53564453125 " fill-rule="nonzero" fill="#304451"/>
      <polygon id="svg_25" points="46715.791015625,35127.13720703125 49023.119140625,34043.71533203125 49028.033203125,34054.19580078125 46720.701171875,35137.61376953125 " fill-rule="nonzero" fill="#304451"/>
      <polygon id="svg_26" points="48282.751953125,33154.04736328125 46707.470703125,35096.57470703125 46698.490234375,35089.26611328125 48273.759765625,33146.73486328125 " fill-rule="nonzero" fill="#304451"/>
      <polygon id="svg_27" points="48306.490234375,33170.20751953125 48020.982421875,35684.49658203125 48009.462890625,35683.21533203125 48294.982421875,33168.92626953125 " fill-rule="nonzero" fill="#304451"/>
      <polygon id="svg_28" points="46697.412109375,35253.51611328125 47809.361328125,35718.44580078125 47804.912109375,35729.14501953125 46692.962890625,35264.20751953125 " fill-rule="nonzero" fill="#304451"/>
      <polygon id="svg_29" points="46671.451171875,35285.27783203125 47269.642578125,37095.80517578125 47258.611328125,37099.43408203125 46660.419921875,35288.90673828125 " fill-rule="nonzero" fill="#304451"/>
      <polygon id="svg_30" points="47332.712890625,37128.58642578125 47863.630859375,35952.23486328125 47874.201171875,35956.98486328125 47343.283203125,37133.34814453125 " fill-rule="nonzero" fill="#304451"/>
      <line id="svg_31" y2="35918.355879" x2="49686.311172" y1="35811.515879" x1="48086.511172" fill="none"/>
      <polygon id="svg_32" points="48086.892578125,35805.73486328125 49686.689453125,35912.56689453125 49685.919921875,35924.14501953125 48086.130859375,35817.30517578125 " fill-rule="nonzero" fill="#304451"/>
      <polygon id="svg_33" points="48086.330078125,35838.23486328125 51284.271484375,37451.54345703125 51279.060546875,37461.87548828125 48081.119140625,35848.56689453125 " fill-rule="nonzero" fill="#304451"/>
      <polygon id="svg_34" points="49098.111328125,34067.70751953125 48040.798828125,35702.88720703125 48031.111328125,35696.57470703125 49088.419921875,34061.39501953125 " fill-rule="nonzero" fill="#304451"/>
      <polygon id="svg_35" points="49102.181640625,34048.78564453125 49724.189453125,35916.54345703125 49713.220703125,35920.17626953125 49091.212890625,34052.40673828125 " fill-rule="nonzero" fill="#304451"/>
      <polygon id="svg_36" points="49844.830078125,35932.27783203125 50615.720703125,34079.75439453125 50626.412109375,34084.19580078125 49855.521484375,35936.72705078125 " fill-rule="nonzero" fill="#304451"/>
      <polygon id="svg_37" points="50747.720703125,34017.42626953125 51828.060546875,35126.87548828125 51819.783203125,35134.94580078125 50739.431640625,34025.49658203125 " fill-rule="nonzero" fill="#304451"/>
      <polygon id="svg_38" points="50690.169921875,34067.24658203125 51348.580078125,37368.45751953125 51337.189453125,37370.70751953125 50678.783203125,34069.49658203125 " fill-rule="nonzero" fill="#304451"/>
      <polygon id="svg_39" points="49854.162109375,35993.83642578125 51317.361328125,37392.12548828125 51309.380859375,37400.49658203125 49846.181640625,36002.21533203125 " fill-rule="nonzero" fill="#304451"/>
      <polygon id="svg_40" points="49506.931640625,37926.74658203125 49712.951171875,35997.41455078125 49724.462890625,35998.63720703125 49518.451171875,37927.96533203125 " fill-rule="nonzero" fill="#304451"/>
      <polygon id="svg_41" points="48024.439453125,35937.74658203125 49429.310546875,37951.66455078125 49419.830078125,37958.27783203125 48014.962890625,35944.35595703125 " fill-rule="nonzero" fill="#304451"/>
      <line id="svg_42" y2="35282.565879" x2="51802.381172" y1="35892.505879" x1="49808.191172" fill="none"/>
      <polygon id="svg_43" points="49806.521484375,35886.97705078125 51800.712890625,35277.03564453125 51804.060546875,35288.09814453125 49809.869140625,35898.03564453125 " fill-rule="nonzero" fill="#304451"/>
      <line id="svg_44" y2="35944.025879" x2="49777.261172" y1="35633.665879" x1="52572.351172" fill="none"/>
      <polygon id="svg_45" points="52572.982421875,35639.42626953125 49777.900390625,35949.78564453125 49776.619140625,35938.26611328125 52571.701171875,35627.90673828125 " fill-rule="nonzero" fill="#304451"/>
      <polygon id="svg_46" points="49150.103515625,34039.44580078125 51805.810546875,35160.24658203125 51801.330078125,35170.91455078125 49145.619140625,34050.10595703125 " fill-rule="nonzero" fill="#304451"/>
      <polygon id="svg_47" points="51896.212890625,35370.83642578125 51469.181640625,37346.80517578125 51457.841796875,37344.36376953125 51884.880859375,35368.39501953125 " fill-rule="nonzero" fill="#304451"/>
      <polygon id="svg_48" points="51546.771484375,37397.34814453125 52637.572265625,35725.22705078125 52647.251953125,35731.53564453125 51556.462890625,37403.65673828125 " fill-rule="nonzero" fill="#304451"/>
      <line id="svg_49" y2="37103.345879" x2="55152.031172" y1="37455.735879" x1="51579.611172" fill="none"/>
      <polygon id="svg_50" points="51579.048828125,37449.97705078125 55151.462890625,37097.59814453125 55152.591796875,37109.10595703125 51580.169921875,37461.48486328125 " fill-rule="nonzero" fill="#304451"/>
      <polygon id="svg_51" points="52860.169921875,35676.48486328125 55111.861328125,37098.45751953125 55105.712890625,37108.23486328125 52854.021484375,35686.26611328125 " fill-rule="nonzero" fill="#304451"/>
      <polygon id="svg_52" points="53110.880859375,34497.14501953125 53130.091796875,38772.96533203125 53118.509765625,38773.00439453125 53099.298828125,34497.17626953125 " fill-rule="nonzero" fill="#304451"/>
      <polygon id="svg_53" points="55128.712890625,37161.52783203125 53203.439453125,38821.48486328125 53195.861328125,38812.74658203125 55121.119140625,37152.77783203125 " fill-rule="nonzero" fill="#304451"/>
      <line id="svg_54" y2="39066.345879" x2="54607.791172" y1="38934.865879" x1="53236.101172" fill="none"/>
      <polygon id="svg_55" points="53236.650390625,38929.11376953125 54608.341796875,39060.58642578125 54607.251953125,39072.10595703125 53235.548828125,38940.63720703125 " fill-rule="nonzero" fill="#304451"/>
      <polygon id="svg_56" points="52786.720703125,35743.04345703125 53035.341796875,38772.52783203125 53023.759765625,38773.44580078125 52775.142578125,35743.96533203125 " fill-rule="nonzero" fill="#304451"/>
      <polygon id="svg_57" points="51553.470703125,37590.23486328125 52969.771484375,38812.69580078125 52962.181640625,38821.43408203125 51545.892578125,37598.97705078125 " fill-rule="nonzero" fill="#304451"/>
      <line id="svg_58" y2="37541.365879" x2="51283.201172" y1="38035.675879" x1="49660.001172" fill="none"/>
      <polygon id="svg_59" points="49658.322265625,38030.13720703125 51281.533203125,37535.83642578125 51284.880859375,37546.89501953125 49661.669921875,38041.19580078125 " fill-rule="nonzero" fill="#304451"/>
      <polygon id="svg_60" points="46520.330078125,35313.72705078125 46162.212890625,37041.20751953125 46150.869140625,37038.88720703125 46509.001953125,35311.41455078125 " fill-rule="nonzero" fill="#304451"/>
      <polygon id="svg_61" points="46349.060546875,37204.85595703125 47263.791015625,37149.19580078125 47264.462890625,37160.77783203125 46349.732421875,37216.43408203125 " fill-rule="nonzero" fill="#304451"/>
      <polygon id="svg_62" points="47353.021484375,37183.95751953125 49360.791015625,38076.29345703125 49356.130859375,38086.86376953125 47348.361328125,37194.52783203125 " fill-rule="nonzero" fill="#304451"/>
      <polygon id="svg_63" points="47274.681640625,37220.82470703125 47200.689453125,39356.83642578125 47189.119140625,39356.47705078125 47263.103515625,37220.45751953125 " fill-rule="nonzero" fill="#304451"/>
      <polygon id="svg_64" points="47090.021484375,39373.60595703125 46199.740234375,37280.57470703125 46210.400390625,37276.03564453125 47100.681640625,39369.06689453125 " fill-rule="nonzero" fill="#304451"/>
      <polygon id="svg_65" points="47229.681640625,39399.04345703125 47926.619140625,35967.05517578125 47937.951171875,35969.30517578125 47241.009765625,39401.29345703125 " fill-rule="nonzero" fill="#304451"/>
      <polygon id="svg_66" points="49404.810546875,38193.85595703125 47266.650390625,39447.13720703125 47260.798828125,39437.17626953125 49398.962890625,38183.89501953125 " fill-rule="nonzero" fill="#304451"/>
      <polygon id="svg_67" points="47156.982421875,39550.30517578125 48104.931640625,40628.92626953125 48096.212890625,40636.54345703125 47148.259765625,39557.91455078125 " fill-rule="nonzero" fill="#304451"/>
      <polygon id="svg_68" points="47265.900390625,39471.91455078125 49711.009765625,40470.28564453125 49706.662109375,40481.03564453125 47261.548828125,39482.66455078125 " fill-rule="nonzero" fill="#304451"/>
      <line id="svg_69" y2="40555.645879" x2="49712.871172" y1="40647.505879" x1="48248.551172" fill="none"/>
      <polygon id="svg_70" points="48248.181640625,40641.72705078125 49712.501953125,40549.85595703125 49713.240234375,40561.43408203125 48248.919921875,40653.29345703125 " fill-rule="nonzero" fill="#304451"/>
      <polygon id="svg_71" points="48181.412109375,40704.31689453125 50178.701171875,41348.46533203125 50175.169921875,41359.49658203125 48177.869140625,40715.33642578125 " fill-rule="nonzero" fill="#304451"/>
      <polygon id="svg_72" points="48223.369140625,40688.83642578125 52281.033203125,41118.88720703125 52279.841796875,41130.40673828125 48222.181640625,40700.35595703125 " fill-rule="nonzero" fill="#304451"/>
      <polygon id="svg_73" points="49980.271484375,40608.56689453125 50244.720703125,41288.11376953125 50233.931640625,41292.28564453125 49969.490234375,40612.73486328125 " fill-rule="nonzero" fill="#304451"/>
      <polygon id="svg_74" points="50006.431640625,40553.69580078125 52259.521484375,41058.65673828125 52257.021484375,41069.96533203125 50003.931640625,40564.99658203125 " fill-rule="nonzero" fill="#304451"/>
      <line id="svg_75" y2="41144.185879" x2="52293.831172" y1="41367.095879" x1="50344.591172" fill="none"/>
      <polygon id="svg_76" points="50343.931640625,41361.33642578125 52293.181640625,41138.42626953125 52294.490234375,41149.94580078125 50345.240234375,41372.85595703125 " fill-rule="nonzero" fill="#304451"/>
      <polygon id="svg_77" points="52337.462890625,41110.46533203125 53627.490234375,40334.03564453125 53633.462890625,40343.96533203125 52343.431640625,41120.39501953125 " fill-rule="nonzero" fill="#304451"/>
      <polygon id="svg_78" points="53088.201171875,39074.05517578125 52340.509765625,41066.31689453125 52329.662109375,41062.29345703125 53077.353515625,39070.02783203125 " fill-rule="nonzero" fill="#304451"/>
      <polygon id="svg_79" points="49577.669921875,38223.36376953125 49832.951171875,40356.63720703125 49821.431640625,40358.00439453125 49566.150390625,38224.73486328125 " fill-rule="nonzero" fill="#304451"/>
      <polygon id="svg_80" points="49907.369140625,40360.48486328125 51353.548828125,37630.04345703125 51363.791015625,37635.44580078125 49917.611328125,40365.88720703125 " fill-rule="nonzero" fill="#304451"/>
      <polygon id="svg_81" points="49668.291015625,38078.42626953125 52934.291015625,38875.46533203125 52931.580078125,38886.70751953125 49665.572265625,38089.66455078125 " fill-rule="nonzero" fill="#304451"/>
      <polygon id="svg_82" points="54965.103515625,35416.80517578125 55157.791015625,37087.96533203125 55146.271484375,37089.27783203125 54953.580078125,35418.11376953125 " fill-rule="nonzero" fill="#304451"/>
      <polygon id="svg_83" points="54717.060546875,39029.20751953125 55178.228515625,37155.76611328125 55189.470703125,37158.53564453125 54728.298828125,39031.97705078125 " fill-rule="nonzero" fill="#304451"/>
      <line id="svg_84" y2="39144.645879" x2="54639.831172" y1="40246.105879" x1="53746.931172" fill="none"/>
      <polygon id="svg_85" points="53742.439453125,40242.45751953125 54635.330078125,39140.98486328125 54644.322265625,39148.29345703125 53751.423828125,40249.76611328125 " fill-rule="nonzero" fill="#304451"/>
      <line id="svg_86" y2="40204.945879" x2="53627.501172" y1="38995.545879" x1="53216.041172" fill="none"/>
      <polygon id="svg_87" points="53221.521484375,38993.68408203125 53632.978515625,40203.09814453125 53622.009765625,40206.81689453125 53210.560546875,38997.40673828125 " fill-rule="nonzero" fill="#304451"/>
      <polygon id="svg_88" points="50002.072265625,40449.88720703125 52992.931640625,39039.67626953125 52997.869140625,39050.15673828125 50007.001953125,40460.36376953125 " fill-rule="nonzero" fill="#304451"/>
      <polygon id="svg_89" points="51436.380859375,37649.18408203125 52289.400390625,41050.63720703125 52278.162109375,41053.43408203125 51425.142578125,37651.98486328125 " fill-rule="nonzero" fill="#304451"/>
      <polygon id="svg_90" points="49652.900390625,38146.54345703125 53585.759765625,40278.43408203125 53580.271484375,40288.63720703125 49647.419921875,38156.74658203125 " fill-rule="nonzero" fill="#304451"/>
     </g>
     <path id="svg_92" d="m53365.4375,33031.027344c70.085938,0 126.90625,56.816406 126.90625,126.898438c0,70.101563 -56.820313,126.898438 -126.90625,126.898438c-70.09375,0 -126.914063,-56.796875 -126.914063,-126.898438c0,-70.082031 56.820313,-126.898438 126.914063,-126.898438z" fill="#E85D37"/>
     <path id="svg_93" d="m51082.992188,32258.296875c106.226563,0 192.335938,86.109375 192.335938,192.339844c0,106.226563 -86.109375,192.339844 -192.335938,192.339844c-106.234375,0 -192.328125,-86.113281 -192.328125,-192.339844c0,-106.230469 86.09375,-192.339844 192.328125,-192.339844z" fill="#E85D37"/>
     <path id="svg_94" d="m51963.078125,35022.644531c123.585938,0 223.765625,100.179688 223.765625,223.761719c0,123.589844 -100.179688,223.757813 -223.765625,223.757813c-123.578125,0 -223.757813,-100.167969 -223.757813,-223.757813c0,-123.582031 100.179688,-223.761719 223.757813,-223.761719z" fill="#304451"/>
     <path id="svg_95" d="m52743.929688,35450.347656c93.703125,0 169.640625,75.949219 169.640625,169.636719c0,93.699219 -75.9375,169.660156 -169.640625,169.660156c-93.6875,0 -169.640625,-75.960938 -169.640625,-169.660156c0,-93.6875 75.953125,-169.636719 169.640625,-169.636719z" fill="#E85D37"/>
     <path id="svg_96" d="m51448.109375,37255.335938c144.648438,0 261.898438,117.238281 261.898438,261.886719c0,144.640625 -117.25,261.902344 -261.898438,261.902344c-144.640625,0 -261.890625,-117.261719 -261.890625,-261.902344c0,-144.648438 117.25,-261.886719 261.890625,-261.886719z" fill="#E85D37"/>
     <path id="svg_97" d="m49877,40326.097656c112.0625,0 202.914063,90.835938 202.914063,202.917969c0,112.070313 -90.851563,202.910156 -202.914063,202.910156c-112.078125,0 -202.929688,-90.839844 -202.929688,-202.910156c0,-112.082031 90.851563,-202.917969 202.929688,-202.917969z" fill="#304451"/>
     <path id="svg_98" d="m53100.117188,38709.375c126.664063,0 229.3125,102.652344 229.3125,229.308594c0,126.640625 -102.648438,229.289063 -229.3125,229.289063c-126.632813,0 -229.289063,-102.648438 -229.289063,-229.289063c0,-126.65625 102.65625,-229.308594 229.289063,-229.308594z" fill="#F29A34"/>
     <path id="svg_99" d="m47296.609375,37055.683594c72.03125,0 130.429688,58.402344 130.429688,130.441406c0,72.042969 -58.398438,130.441406 -130.429688,130.441406c-72.03125,0 -130.429688,-58.398438 -130.429688,-130.441406c0,-72.039063 58.398438,-130.441406 130.429688,-130.441406z" fill="#DC3338"/>
     <path id="svg_100" d="m46219.273438,36963.164063c123.148438,0 222.96875,99.820313 222.96875,222.972656c0,123.140625 -99.820313,222.957031 -222.96875,222.957031c-123.140625,0 -222.96875,-99.816406 -222.96875,-222.957031c0,-123.152344 99.828125,-222.972656 222.96875,-222.972656z" fill="#F28735"/>
     <path id="svg_101" d="m47180.859375,39328.214844c85.179688,0 154.234375,69.0625 154.234375,154.242188c0,85.199219 -69.054688,154.238281 -154.234375,154.238281c-85.1875,0 -154.242188,-69.039063 -154.242188,-154.238281c0,-85.179688 69.054688,-154.242188 154.242188,-154.242188z" fill="#F29A34"/>
     <path id="svg_102" d="m50638.414063,33694.875c140.132813,0 253.734375,113.601563 253.734375,253.730469c0,140.128906 -113.601563,253.730469 -253.734375,253.730469c-140.140625,0 -253.726563,-113.601563 -253.726563,-253.730469c0,-140.128906 113.585938,-253.730469 253.726563,-253.730469z" fill="#E85D37"/>
     <path id="svg_103" d="m51980.601563,33608.996094c102.382813,0 185.359375,82.988281 185.359375,185.359375c0,102.378906 -82.976563,185.371094 -185.359375,185.371094c-102.359375,0 -185.351563,-82.992188 -185.351563,-185.371094c0,-102.371094 82.992188,-185.359375 185.351563,-185.359375z" fill="#F29A34"/>
     <path id="svg_104" d="m49099.0625,33922.824219c63.421875,0 114.828125,51.410156 114.828125,114.839844c0,63.429688 -51.40625,114.832031 -114.828125,114.832031c-63.414063,0 -114.820313,-51.402344 -114.820313,-114.832031c0,-63.429688 51.40625,-114.839844 114.820313,-114.839844z" fill="#E85D37"/>
     <path id="svg_105" d="m48315.046875,32882.835938c99.414063,0 180,80.578125 180,180c0,99.398438 -80.585938,179.980469 -180,179.980469c-99.414063,0 -180,-80.582031 -180,-179.980469c0,-99.421875 80.585938,-180 180,-180z" fill="#304451"/>
     <path id="svg_106" d="m53080.898438,34360.355469c64.203125,0 116.242188,52.039063 116.242188,116.230469c0,64.199219 -52.039063,116.230469 -116.242188,116.230469c-64.1875,0 -116.234375,-52.03125 -116.234375,-116.230469c0,-64.191406 52.046875,-116.230469 116.234375,-116.230469z" fill="#F29A34"/>
     <path id="svg_107" d="m46585.453125,35003.375c102.359375,0 185.335938,82.96875 185.335938,185.332031c0,102.367188 -82.976563,185.335938 -185.335938,185.335938c-102.359375,0 -185.351563,-82.96875 -185.351563,-185.335938c0,-102.363281 82.992188,-185.332031 185.351563,-185.332031z" fill="#E85D37"/>
     <path id="svg_108" d="m55169.390625,37044.964844c58.78125,0 106.429688,47.652344 106.429688,106.410156c0,58.78125 -47.648438,106.429688 -106.429688,106.429688c-58.78125,0 -106.414063,-47.648438 -106.414063,-106.429688c0,-58.757813 47.632813,-106.410156 106.414063,-106.410156z" fill="#F15D36"/>
     <path id="svg_109" d="m54682.601563,38955.175781c76.070313,0 137.75,61.660156 137.75,137.730469c0,76.070313 -61.679688,137.75 -137.75,137.75c-76.070313,0 -137.734375,-61.679688 -137.734375,-137.75c0,-76.070313 61.664063,-137.730469 137.734375,-137.730469z" fill="#304451"/>
     <path id="svg_110" d="m53674.453125,40190.035156c67.828125,0 122.820313,54.992188 122.820313,122.820313c0,67.828125 -54.992188,122.800781 -122.820313,122.800781c-67.820313,0 -122.804688,-54.972656 -122.804688,-122.800781c0,-67.828125 54.984375,-122.820313 122.804688,-122.820313z" fill="#E85D37"/>
     <path id="svg_111" d="m52313.273438,41031.804688c49.125,0 88.9375,39.820313 88.9375,88.941406c0,49.117188 -39.8125,88.9375 -88.9375,88.9375c-49.125,0 -88.945313,-39.820313 -88.945313,-88.9375c0,-49.121094 39.820313,-88.941406 88.945313,-88.941406z" fill="#E85D37"/>
     <path id="svg_112" d="m50284.109375,41227.464844c85.179688,0 154.242188,69.039063 154.242188,154.242188c0,85.179688 -69.0625,154.238281 -154.242188,154.238281c-85.1875,0 -154.242188,-69.058594 -154.242188,-154.238281c0,-85.203125 69.054688,-154.242188 154.242188,-154.242188z" fill="#F29A34"/>
     <path id="svg_113" d="m48206.484375,40557.285156c61.367188,0 111.09375,49.742188 111.09375,111.089844c0,61.359375 -49.726563,111.109375 -111.09375,111.109375c-61.367188,0 -111.09375,-49.75 -111.09375,-111.109375c0,-61.347656 49.726563,-111.089844 111.09375,-111.089844z" fill="#E85D37"/>
     <path id="svg_114" d="m54976.6875,35188.707031c85.195313,0 154.242188,69.046875 154.242188,154.238281c0,85.179688 -69.046875,154.238281 -154.242188,154.238281c-85.179688,0 -154.226563,-69.058594 -154.226563,-154.238281c0,-85.191406 69.046875,-154.238281 154.226563,-154.238281z" fill="#E85D37"/>
     <g id="svg_117">
      <g id="svg_116" clip-path="url(#svg_143)">
       <image id="svg_115" xlink:href="Logo_ias_curvas_Images\Logo_ias_curvas_ImgID1.png" height="2260.46" width="13386.81" y="35830.155879" x="43998.901172"/>
      </g>
     </g>
     <path id="svg_118" d="m46854.328125,35812.695313l533.515625,-0.019531c142.25,0 282.1875,22.96875 415.984375,71.617188c132.25,48.09375 252.265625,119.703125 355.664063,215.140625c70.367188,64.972656 129.898438,138.773438 178.867188,219.730469l0,-506.457031l1198.5,0l0,683.109375l-478.578125,0l0,239.859375l478.578125,0l0,560.101563l31.5625,0l0,685.738281l-1230.0625,0l0,-517.417969c-48.710938,81.109375 -107.90625,155.195313 -177.875,220.578125c-103.296875,96.488281 -223.296875,169.238281 -355.421875,219.070313c-134.664063,50.78125 -275.929688,75.167969 -419.828125,75.167969l-799.296875,-0.019531l0,2.621094l-2621.117188,0l0,-2168.808594l486.179688,0c86.859375,0 173.984375,15.457031 257.546875,38.335938c105.390625,28.871094 201.9375,79.0625 288.65625,145.242188c97.960938,74.75 173.945313,171.199219 231.507813,279.660156c70.53125,132.941406 95.007813,284.019531 95.007813,433.152344c0,120.546875 -14.875,244.195313 -59.210938,357.027344c-32.460938,82.652344 -73.335938,164.371094 -127.765625,234.878906c-7.601563,9.84375 -15.382813,19.511719 -23.351563,29l242.476563,372.25l0,-1889.546875l1498.460938,-0.011719zm-369.78125,683.121094l-408.757813,0l0,239.859375l408.757813,0l0,-239.859375zm9419.164063,239.859375l0,-171.910156l89.90625,141.230469c-0.148438,-0.359375 -0.296875,-0.75 -0.445313,-1.132813c-33.640625,-81.847656 -47.390625,-169.527344 -47.390625,-257.726563c0,-103.222656 19.9375,-204.582031 67.515625,-296.75c41.28125,-79.980469 96.679688,-150.621094 167.273438,-206.78125c62.71875,-49.910156 132.6875,-88.660156 208.46875,-114.789063c69.703125,-24.050781 142.5625,-38.78125 216.484375,-38.78125c47.429688,0 94.90625,2.5 142.007813,8.242188c36.9375,4.507813 73.835938,9.859375 110.421875,16.699219l3.757813,0.707031l3.710938,0.820313c35.96875,7.992188 71.671875,17.140625 107.007813,27.53125l163.976563,48.269531l0,833.550781c2.953125,3.550781 5.882813,7.121094 8.773438,10.710938c53.46875,66.539063 93.796875,141.589844 121.164063,222.410156c29.554688,87.347656 40.984375,179.808594 40.984375,271.769531c0,104.460938 -21.96875,205.667969 -64.625,301.039063c-40.632813,90.808594 -96.320313,172.789063 -166.640625,243.128906c-70.351563,70.332031 -152.335938,126.019531 -243.140625,166.640625c-96.148438,43.019531 -198.289063,64.628906 -303.664063,64.628906c-51.976563,0 -103.90625,-3.988281 -155.296875,-11.796875c-48.78125,-7.421875 -97.140625,-17.851563 -144.398438,-32.03125c-40.523438,-12.160156 -80.585938,-26.160156 -119.53125,-42.691406c-36.03125,-15.269531 -72.023438,-32.699219 -104.625,-54.4375l-41.789063,-27.871094l0,145.160156l-1230.070313,0l0,-1485.699219l-218.84375,0l0,1485.699219l-2888.140625,0l-63.109375,-278.730469l-48.703125,0l-60.46875,278.730469l-764.164063,0l546.570313,-2166.191406l605.804688,0l435.015625,1724.203125l0,-1726.820313l486.179688,0c86.851563,0 173.984375,15.457031 257.554688,38.335938c105.390625,28.871094 201.929688,79.0625 288.648438,145.242188c82.828125,63.199219 149.960938,141.921875 203.507813,230.3125l0,-413.890625l2418.648438,0l0,683.109375l-478.578125,0l0,239.859375l450.242188,0zm-2286.5,-239.859375c13.585938,70.058594 19.1875,141.898438 19.1875,213.277344c0,120.550781 -14.875,244.199219 -59.195313,357.03125c-32.460938,82.652344 -73.351563,164.371094 -127.773438,234.878906c-7.601563,9.839844 -15.390625,19.511719 -23.351563,29l371.328125,570.050781l0,-1404.238281l-180.195313,0zm2704,723.710938c2.476563,2.265625 5.421875,4.539063 7.859375,6.40625c18.71875,14.351563 39.296875,26.832031 60.03125,37.992188c20.867188,11.238281 42.859375,20.058594 65.554688,26.769531c15.617188,4.609375 31.984375,7.71875 48.304688,7.71875c11.15625,0 33.3125,-0.570313 42.335938,-9.429688c17.640625,-17.328125 25.34375,-37.5 28.632813,-57.347656c0.640625,-4.523438 1.671875,-13.679688 1.140625,-19.601563c-37.609375,-38.101563 -92.289063,-67.992188 -140.351563,-89.828125c-54.257813,-24.671875 -106.75,-53.042969 -157.5625,-84.164063c-55.132813,-33.75 -105.109375,-74.5 -148.984375,-121.699219l193.039063,303.183594zm-5998.109375,411.417969l0,350.570313l-719.921875,0l0,-2161.019531l462.609375,-5.152344c126.414063,-1.398438 250.578125,20.652344 366.125,72.839844c107.21875,48.421875 202.90625,115.640625 283.734375,201.222656c81.46875,86.238281 143.164063,186.828125 185.429688,297.660156c43.21875,113.328125 63.640625,232.398438 63.640625,353.589844c0,121.929688 -22.179688,241.21875 -68.078125,354.1875c-43.320313,106.632813 -103.46875,204.390625 -181.3125,289.300781c-77.984375,85.082031 -170.289063,152.839844 -274.6875,202.109375c-38.3125,18.082031 -77.539063,32.980469 -117.539063,44.691406z" fill="#FEFEFE"/>
     <path id="svg_119" d="m49530.039063,37768.964844c184.195313,0 333.484375,149.289063 333.484375,333.480469c0,184.191406 -149.289063,333.480469 -333.484375,333.480469c-184.179688,0 -333.476563,-149.289063 -333.476563,-333.480469c0,-184.191406 149.296875,-333.480469 333.476563,-333.480469z" fill="#E85D37"/>
     <path id="svg_120" d="m49784.828125,35733.375c117.21875,0 212.242188,95.019531 212.242188,212.25c0,117.230469 -95.023438,212.238281 -212.242188,212.238281c-117.210938,0 -212.25,-95.007813 -212.25,-212.238281c0,-117.230469 95.039063,-212.25 212.25,-212.25z" fill="#F29A34"/>
     <g id="svg_133">
      <path id="svg_121" d="m44798.070313,37753.027344l-191.953125,-357.613281c-14.015625,7.011719 -29.796875,12.269531 -47.328125,15.78125c-17.53125,3.5 -34.179688,7.011719 -49.960938,10.511719c-19.273438,3.507813 -37.6875,6.140625 -55.21875,7.890625l0,323.429688l-260.304688,0l0,-1711.800781l257.679688,0c57.84375,0 123.585938,10.078125 197.21875,30.238281c73.617188,20.160156 143.734375,55.660156 210.359375,106.5c66.609375,50.828125 122.695313,119.199219 168.28125,205.089844c45.570313,85.902344 68.359375,194.589844 68.359375,326.058594c0,108.691406 -14.460938,199.84375 -43.382813,273.472656c-28.929688,73.621094 -60.921875,133.230469 -95.96875,178.800781c-42.070313,54.339844 -88.539063,98.167969 -139.367188,131.46875l299.757813,460.171875l-318.171875,0zm28.929688,-1014.992188c0,-63.101563 -8.328125,-123.148438 -24.976563,-180.109375c-16.664063,-56.980469 -41.203125,-106.941406 -73.625,-149.882813c-32.429688,-42.957031 -71.445313,-76.695313 -117.015625,-101.238281c-45.578125,-24.539063 -97.289063,-36.820313 -155.140625,-36.820313l0,922.949219c56.101563,0 106.9375,-11.390625 152.507813,-34.179688c45.578125,-22.789063 84.148438,-54.339844 115.703125,-94.65625c31.546875,-40.320313 56.539063,-88.082031 74.9375,-143.304688c18.414063,-55.21875 27.609375,-116.136719 27.609375,-182.757813z" fill-rule="nonzero" fill="#304451"/>
      <polygon id="svg_122" points="45584.361328125,36041.22705078125 46325.880859375,36041.22705078125 46325.880859375,36267.35595703125 45847.310546875,36267.35595703125 45847.310546875,36964.17626953125 46325.880859375,36964.17626953125 46325.880859375,37192.93408203125 45847.310546875,37192.93408203125 45847.310546875,37524.25439453125 46357.431640625,37524.25439453125 46357.431640625,37753.02783203125 45584.361328125,37753.02783203125 " fill-rule="nonzero" fill="#304451"/>
      <polygon id="svg_123" points="48566.841796875,36041.22705078125 49308.361328125,36041.22705078125 49308.361328125,36267.35595703125 48829.791015625,36267.35595703125 48829.791015625,36964.17626953125 49308.361328125,36964.17626953125 49308.361328125,37192.93408203125 48829.791015625,37192.93408203125 48829.791015625,37524.25439453125 49339.912109375,37524.25439453125 49339.912109375,37753.02783203125 48566.841796875,37753.02783203125 " fill-rule="nonzero" fill="#304451"/>
      <path id="svg_124" d="m49831.671875,36046.484375l236.648438,-2.628906c98.171875,-1.75 188.007813,15.769531 269.523438,52.589844c81.515625,36.808594 152.078125,86.769531 211.664063,149.878906c59.601563,63.109375 105.632813,137.171875 138.0625,222.191406c32.429688,85.027344 48.632813,175.738281 48.632813,272.148438c0,94.660156 -17.09375,184.070313 -51.265625,268.210938c-34.1875,84.152344 -80.210938,157.769531 -138.054688,220.878906c-57.851563,63.101563 -125.78125,113.070313 -203.78125,149.882813c-78.007813,36.808594 -160.84375,55.21875 -248.492188,55.21875l0,318.171875l-262.9375,0l0,-1706.542969zm262.9375,1154.339844c56.101563,0 106.9375,-11.390625 152.507813,-34.179688c45.585938,-22.789063 84.15625,-54.789063 115.703125,-95.96875c31.546875,-41.199219 56.539063,-89.410156 74.953125,-144.632813c18.398438,-55.21875 27.59375,-116.136719 27.59375,-182.75c0,-63.097656 -8.320313,-123.136719 -24.976563,-180.117188c-16.648438,-56.96875 -40.75,-106.492188 -72.3125,-148.5625c-31.554688,-42.070313 -70.554688,-75.820313 -117.007813,-101.226563c-46.453125,-25.421875 -98.609375,-38.132813 -156.460938,-38.132813l0,925.570313z" fill-rule="nonzero" fill="#304451"/>
      <path id="svg_125" d="m52095.703125,37753.027344l-286.609375,0l-63.101563,-278.734375l-415.460938,0l-60.484375,278.734375l-286.609375,0l431.234375,-1709.171875l249.796875,0l431.234375,1709.171875zm-560.070313,-1306.863281l-168.289063,804.621094l336.578125,0l-168.289063,-804.621094z" fill-rule="nonzero" fill="#304451"/>
      <path id="svg_126" d="m53110.773438,37753.027344l-191.953125,-357.613281c-14.015625,7.011719 -29.796875,12.269531 -47.335938,15.78125c-17.523438,3.5 -34.179688,7.011719 -49.953125,10.511719c-19.289063,3.507813 -37.703125,6.140625 -55.21875,7.890625l0,323.429688l-260.320313,0l0,-1711.800781l257.6875,0c57.851563,0 123.578125,10.078125 197.210938,30.238281c73.617188,20.160156 143.742188,55.660156 210.359375,106.5c66.609375,50.828125 122.703125,119.199219 168.28125,205.089844c45.578125,85.902344 68.367188,194.589844 68.367188,326.058594c0,108.691406 -14.460938,199.84375 -43.390625,273.472656c-28.914063,73.621094 -60.914063,133.230469 -95.96875,178.800781c-42.070313,54.339844 -88.53125,98.167969 -139.359375,131.46875l299.757813,460.171875l-318.164063,0zm28.914063,-1014.992188c0,-63.101563 -8.328125,-123.148438 -24.976563,-180.109375c-16.648438,-56.980469 -41.203125,-106.941406 -73.617188,-149.882813c-32.429688,-42.957031 -71.445313,-76.695313 -117.023438,-101.238281c-45.578125,-24.539063 -97.289063,-36.820313 -155.132813,-36.820313l0,922.949219c56.09375,0 106.929688,-11.390625 152.515625,-34.179688c45.578125,-22.789063 84.140625,-54.339844 115.6875,-94.65625c31.5625,-40.320313 56.539063,-88.082031 74.9375,-143.304688c18.414063,-55.21875 27.609375,-116.136719 27.609375,-182.757813z" fill-rule="nonzero" fill="#304451"/>
      <polygon id="svg_127" points="54286.220703125,36267.35595703125 54286.220703125,37753.02783203125 54025.900390625,37753.02783203125 54025.900390625,36267.35595703125 53741.912109375,36267.35595703125 53741.912109375,36041.22705078125 54570.212890625,36041.22705078125 54570.212890625,36267.35595703125 " fill-rule="nonzero" fill="#304451"/>
      <polygon id="svg_128" points="54962.041015625,36041.22705078125 55703.560546875,36041.22705078125 55703.560546875,36267.35595703125 55224.990234375,36267.35595703125 55224.990234375,36964.17626953125 55703.560546875,36964.17626953125 55703.560546875,37192.93408203125 55224.990234375,37192.93408203125 55224.990234375,37524.25439453125 55735.111328125,37524.25439453125 55735.111328125,37753.02783203125 54962.041015625,37753.02783203125 " fill-rule="nonzero" fill="#304451"/>
      <path id="svg_129" d="m56671.25,36677.566406c59.59375,24.539063 114.8125,53.019531 165.648438,85.449219c50.835938,32.429688 94.234375,71 130.164063,115.699219c35.9375,44.699219 63.539063,95.539063 82.828125,152.511719c19.28125,56.96875 28.921875,123.148438 28.921875,198.527344c0,71.871094 -14.890625,141.109375 -44.695313,207.730469c-29.804688,66.613281 -69.6875,124.902344 -119.648438,174.863281c-49.960938,49.957031 -108.25,89.835938 -174.859375,119.636719c-66.617188,29.800781 -136.726563,44.699219 -210.359375,44.699219c-40.3125,0 -80.640625,-3.070313 -120.945313,-9.207031c-40.335938,-6.121094 -78.015625,-14.449219 -113.070313,-24.972656c-35.0625,-10.519531 -67.0625,-21.90625 -95.984375,-34.1875c-28.929688,-12.269531 -51.265625,-23.660156 -67.046875,-34.179688l0,-326.0625c12.265625,19.289063 31.546875,39.011719 57.851563,59.160156c26.296875,20.171875 56.523438,39.449219 90.703125,57.851563c34.195313,18.410156 70.5625,33.320313 109.132813,44.710938c38.570313,11.398438 76.257813,17.089844 113.070313,17.089844c84.140625,0 151.632813,-24.980469 202.460938,-74.941406c50.835938,-49.960938 82.398438,-112.628906 94.65625,-188.011719c12.28125,-85.886719 -7.4375,-155.578125 -59.15625,-209.039063c-51.710938,-53.46875 -122.257813,-100.359375 -211.671875,-140.679688c-45.578125,-21.039063 -89.835938,-44.699219 -132.789063,-70.988281c-42.9375,-26.300781 -80.640625,-58.292969 -113.070313,-95.980469c-32.429688,-37.691406 -58.71875,-81.082031 -78.882813,-130.160156c-20.15625,-49.089844 -30.234375,-106.058594 -30.234375,-170.921875c0,-73.617188 14.03125,-137.609375 42.078125,-191.949219c28.039063,-54.339844 63.539063,-98.609375 106.476563,-132.789063c42.960938,-34.179688 89.851563,-60.039063 140.695313,-77.570313c50.828125,-17.53125 98.15625,-26.300781 141.976563,-26.300781c40.328125,0 78.460938,2.199219 114.390625,6.570313c35.9375,4.390625 67.929688,9.210938 95.96875,14.472656c31.5625,7.007813 62.234375,14.898438 92.039063,23.65625l0,315.542969c-19.28125,-22.792969 -42.070313,-43.820313 -68.367188,-63.101563c-22.78125,-15.78125 -51.710938,-30.238281 -86.773438,-43.390625c-35.054688,-13.140625 -75.375,-19.730469 -120.945313,-19.730469c-35.070313,0 -64.875,6.140625 -89.414063,18.410156c-24.546875,12.28125 -44.695313,27.621094 -60.476563,46.019531c-15.773438,18.410156 -27.171875,38.570313 -34.179688,60.480469c-7.007813,21.910156 -10.523438,42.511719 -10.523438,61.792969c0,40.320313 11.835938,75.820313 35.5,106.5c23.664063,30.667969 50.398438,55.648438 80.195313,74.9375c33.320313,22.789063 72.757813,42.070313 118.335938,57.851563z" fill-rule="nonzero" fill="#304451"/>
      <path id="svg_130" d="m47407.914063,37381.644531c11.554688,-9.828125 22.726563,-20.117188 33.539063,-30.929688c54.359375,-54.351563 97.289063,-120.089844 128.828125,-197.210938c31.5625,-77.148438 47.328125,-163.929688 47.328125,-260.328125c0,-94.660156 -15.765625,-180.578125 -47.328125,-257.71875c-31.539063,-77.132813 -74.03125,-142.441406 -127.523438,-195.890625c-11.164063,-11.171875 -22.789063,-21.832031 -34.84375,-31.980469l0,-75.152344c65.570313,2.371094 129.554688,15.042969 190.695313,39.792969c63.890625,25.871094 121.1875,62.449219 170.023438,111.25c93.507813,93.527344 163.890625,250.148438 159.726563,410.46875c-5.6875,218.128906 -129.210938,443.167969 -332.390625,525.417969c-60.351563,24.402344 -123.421875,37.042969 -188.054688,39.652344l0,-77.371094z" fill-rule="nonzero" fill="#F29A34"/>
      <polygon id="svg_131" points="47012.822265625,37521.62548828125 47020.712890625,37521.60595703125 47020.712890625,37750.40673828125 47015.462890625,37750.40673828125 46713.060546875,37750.40673828125 46713.060546875,36041.14501953125 47018.072265625,36041.14501953125 47020.712890625,36041.14501953125 47020.712890625,36269.92626953125 47015.462890625,36269.92626953125 46976.009765625,36269.92626953125 46976.009765625,37521.62548828125 " fill-rule="nonzero" fill="#F29A34"/>
      <path id="svg_132" d="m47382.601563,37521.636719c84.140625,0 163.03125,-14.910156 236.65625,-44.691406c73.640625,-29.820313 137.625,-71.898438 191.984375,-126.230469c54.351563,-54.347656 97.265625,-120.097656 128.820313,-197.210938c31.554688,-77.148438 47.335938,-163.929688 47.335938,-260.328125c0,-94.671875 -15.78125,-180.578125 -47.335938,-257.730469c-31.554688,-77.109375 -74.039063,-142.429688 -127.523438,-195.878906c-53.445313,-53.480469 -117.03125,-95.132813 -190.640625,-124.921875c-73.625,-29.808594 -152.515625,-44.71875 -236.65625,-44.71875l-39.4375,0l0,1251.710938l36.796875,0zm5.25,-1480.480469c119.226563,0 231.851563,19.277344 337.90625,57.859375c106.070313,38.570313 198.992188,94.660156 278.75,168.300781c79.765625,73.609375 142.875,163.03125 189.335938,268.21875c46.460938,105.191406 69.695313,224.398438 69.695313,357.640625c0,129.691406 -23.234375,247.589844 -69.695313,353.660156c-46.460938,106.058594 -109.570313,196.347656 -189.335938,270.847656c-79.757813,74.511719 -173.117188,131.914063 -280.046875,172.25c-106.929688,40.320313 -220.023438,60.472656 -339.21875,60.472656l-302.414063,0l0,-1709.25l305.023438,0z" fill-rule="nonzero" fill="#E85D37"/>
     </g>
     <path id="svg_134" d="m47949.648438,35650.753906c101.664063,0 184.0625,82.414063 184.0625,184.070313c0,101.664063 -82.398438,184.070313 -184.0625,184.070313c-101.679688,0 -184.078125,-82.40625 -184.078125,-184.070313c0,-101.65625 82.398438,-184.070313 184.078125,-184.070313z" fill="#F29A34"/>
    </g>
   </g>
  </g>
 </g>
</svg>