<?xml version="1.0" encoding="utf-8"?>
<!-- Svg Vector Icons : http://www.onlinewebfonts.com/icon -->
<!DOCTYPE svg PUBLIC "-//W3C//DTD SVG 1.1//EN" "http://www.w3.org/Graphics/SVG/1.1/DTD/svg11.dtd">
<svg version="1.1" xmlns="http://www.w3.org/2000/svg" xmlns:xlink="http://www.w3.org/1999/xlink" x="0px" y="0px" viewBox="0 0 1000 1000" enable-background="new 0 0 1000 1000" xml:space="preserve">
<metadata> Svg Vector Icons : http://www.onlinewebfonts.com/icon </metadata>
<g><path d="M621.8,439.3c66.1-41,110.3-113.9,110.3-197.2C732.1,114.1,628,10,500,10S267.9,114.1,267.9,242.1c0,83.3,44.3,156.3,110.3,197.2C181,492.9,35.8,672.7,35.8,886.8c0,17.5,1,34.7,2.8,51.6c1.9,17.5,5.2,34.7,9,51.6h904.7c3.8-16.8,7-33.9,9-51.4c1.9-17,2.9-34.3,2.9-51.8C964.2,672.7,819,492.9,621.8,439.3z M319.5,242.1c0-99.5,81-180.5,180.5-180.5s180.5,81,180.5,180.5c0,99.5-81,180.5-180.5,180.5S319.5,341.7,319.5,242.1z M910.1,933c-0.2,1.8-0.4,3.6-0.6,5.5H90.6c-0.2-1.9-0.5-3.8-0.7-5.6c-1.7-15.1-2.5-30.6-2.5-45.9c0-227.5,185.1-412.6,412.6-412.6s412.6,185.1,412.6,412.6C912.6,902.2,911.8,917.7,910.1,933z"/></g>
</svg>