<?xml version="1.0" standalone="no"?>
<!DOCTYPE svg PUBLIC "-//W3C//DTD SVG 20010904//EN"
 "http://www.w3.org/TR/2001/REC-SVG-20010904/DTD/svg10.dtd">
<svg version="1.0" xmlns="http://www.w3.org/2000/svg"
 width="227.000000pt" height="165.000000pt" viewBox="0 0 227.000000 165.000000"
 preserveAspectRatio="xMidYMid meet">
<metadata>
Created by potrace 1.15, written by Peter Selinger 2001-2017
</metadata>
<g transform="translate(0.000000,165.000000) scale(0.100000,-0.100000)"
fill="#000000" stroke="none">
<path d="M80 790 c0 -133 1 -140 20 -140 15 0 20 7 20 24 0 38 18 41 38 7 11
-21 25 -31 40 -31 l24 0 -21 35 c-20 35 -20 35 -1 68 51 84 1 177 -96 177
l-24 0 0 -140z"/>
<path d="M300 790 l0 -140 65 0 c58 0 65 2 65 20 0 17 -7 20 -40 20 -36 0 -40
3 -40 25 0 22 4 25 35 25 28 0 35 4 35 20 0 16 -7 20 -35 20 l-35 0 0 55 0 55
35 0 c28 0 35 4 35 20 0 18 -7 20 -60 20 l-60 0 0 -140z"/>
<path d="M550 790 l0 -140 40 0 c115 0 182 105 133 207 -19 41 -77 72 -135 73
l-38 0 0 -140z m115 76 c45 -45 45 -107 0 -152 -13 -13 -36 -24 -50 -24 l-25
0 0 100 0 100 25 0 c14 0 37 -11 50 -24z"/>
<path d="M790 790 l0 -140 66 0 c57 0 65 2 62 18 -2 12 -15 18 -46 20 -37 3
-42 6 -42 28 0 21 4 24 40 24 33 0 40 3 40 20 0 17 -7 20 -40 20 l-40 0 0 55
0 55 40 0 c33 0 40 3 40 20 0 18 -7 20 -60 20 l-60 0 0 -140z"/>
<path d="M1000 790 c0 -133 1 -140 20 -140 14 0 20 7 20 23 0 16 11 27 39 40
45 20 66 55 65 106 -2 67 -50 111 -120 111 l-24 0 0 -140z"/>
<path d="M1251 893 c-5 -21 -19 -76 -31 -123 -12 -47 -23 -93 -26 -102 -9 -30
35 -23 46 8 8 21 15 25 42 22 25 -2 34 -8 36 -25 2 -16 10 -23 27 -23 l23 0
-35 140 c-30 116 -39 140 -54 140 -13 0 -21 -11 -28 -37z"/>
<path d="M1440 790 c0 -132 1 -140 19 -140 14 0 21 8 23 27 4 37 23 39 38 3 9
-21 19 -30 36 -30 29 0 30 4 3 41 l-20 29 20 26 c23 30 29 101 10 136 -12 23
-66 48 -104 48 l-25 0 0 -140z"/>
<path d="M1840 790 l0 -140 66 0 c57 0 65 2 62 18 -2 12 -15 18 -46 20 -37 3
-42 6 -42 28 0 21 4 24 40 24 33 0 40 3 40 20 0 17 -7 20 -40 20 l-40 0 0 55
0 55 40 0 c33 0 40 3 40 20 0 18 -7 20 -60 20 l-60 0 0 -140z"/>
<path d="M2061 911 c-42 -42 -24 -88 52 -134 29 -19 36 -54 15 -75 -15 -15
-53 -16 -79 -2 -16 9 -19 7 -19 -14 0 -27 16 -36 65 -36 50 0 87 36 87 83 0
43 -12 60 -64 93 -21 14 -38 31 -38 39 0 22 30 34 58 24 21 -8 23 -6 20 13 -4
33 -68 38 -97 9z"/>
</g>
</svg>
