<?xml version="1.0" standalone="no"?>
<!DOCTYPE svg PUBLIC "-//W3C//DTD SVG 20010904//EN"
 "http://www.w3.org/TR/2001/REC-SVG-20010904/DTD/svg10.dtd">
<svg version="1.0" xmlns="http://www.w3.org/2000/svg"
 width="219.000000pt" height="230.000000pt" viewBox="0 0 219.000000 230.000000"
 preserveAspectRatio="xMidYMid meet">
<metadata>
Created by potrace 1.15, written by Peter Selinger 2001-2017
</metadata>
<g transform="translate(0.000000,230.000000) scale(0.100000,-0.100000)"
fill="#000000" stroke="none">
<path d="M0 1150 l0 -1150 1095 0 1095 0 0 1150 0 1150 -1095 0 -1095 0 0
-1150z m2130 1040 c12 -17 20 -35 18 -42 -2 -6 -40 -39 -83 -72 l-80 -62 -101
-324 c-56 -179 -133 -424 -170 -545 l-67 -220 2 -236 c2 -142 -1 -239 -7 -243
-5 -3 -290 -6 -633 -6 -495 0 -624 2 -631 12 -7 12 -12 85 -5 90 1 1 263 5
582 8 l580 5 3 105 c2 58 0 129 -3 158 l-6 52 -622 1 c-342 1 -633 4 -647 8
-21 6 -28 19 -47 86 -48 172 -156 635 -150 641 13 13 768 67 1382 100 201 10
324 21 331 28 7 6 31 72 53 146 23 74 47 149 52 167 8 24 34 50 107 103 53 38
102 70 109 70 6 0 21 -14 33 -30z m-1499 -1791 c44 -22 72 -59 89 -116 17 -55
2 -109 -43 -160 -111 -126 -306 -53 -307 115 0 59 15 94 57 134 62 59 125 68
204 27z m929 -5 c29 -14 72 -59 89 -91 36 -69 -5 -182 -83 -228 -149 -87 -320
66 -252 228 16 40 77 95 114 103 15 3 32 7 37 9 16 4 68 -7 95 -21z"/>
<path d="M1535 1601 l-40 -6 0 -80 0 -80 95 0 95 0 27 75 c15 41 27 81 27 88
1 13 -125 15 -204 3z"/>
<path d="M1284 1576 c-3 -7 -4 -42 -2 -77 l3 -64 65 0 65 0 3 78 3 77 -66 0
c-46 0 -67 -4 -71 -14z"/>
<path d="M1094 1566 c-3 -7 -4 -40 -2 -72 l3 -59 55 0 55 0 3 73 3 72 -56 0
c-38 0 -57 -4 -61 -14z"/>
<path d="M894 1557 c-3 -8 -4 -39 -2 -68 l3 -54 51 -3 c64 -4 76 9 72 80 l-3
53 -58 3 c-42 2 -59 -1 -63 -11z"/>
<path d="M707 1553 c-27 -4 -28 -6 -25 -61 l3 -57 39 -3 c22 -2 50 -1 63 2 21
6 23 12 23 66 l0 60 -37 -1 c-21 -1 -51 -4 -66 -6z"/>
<path d="M273 1521 c-40 -4 -75 -10 -79 -14 -3 -3 -2 -18 3 -34 l10 -28 94 0
94 0 0 40 c0 46 -2 47 -122 36z"/>
<path d="M233 1327 c3 -23 12 -60 19 -82 l13 -40 65 0 65 0 3 73 c3 70 2 72
-23 82 -15 6 -54 10 -87 10 l-61 0 6 -43z"/>
<path d="M470 1280 l0 -80 64 0 c49 0 65 4 70 16 8 20 8 73 0 113 -6 31 -7 31
-70 31 l-64 0 0 -80z"/>
<path d="M680 1280 l0 -80 65 0 65 0 0 80 0 80 -65 0 -65 0 0 -80z"/>
<path d="M890 1280 l0 -81 63 3 62 3 0 75 0 75 -62 3 -63 3 0 -81z"/>
<path d="M1097 1354 c-4 -4 -7 -41 -7 -81 l0 -74 58 3 57 3 0 75 0 75 -50 3
c-28 2 -54 0 -58 -4z"/>
<path d="M1284 1345 c-4 -8 -3 -45 1 -81 l7 -65 61 3 62 3 0 75 0 75 -63 3
c-49 2 -64 0 -68 -13z"/>
<path d="M1500 1280 l0 -80 54 0 c31 0 58 5 64 13 10 12 42 116 42 136 0 7
-29 11 -80 11 l-80 0 0 -80z"/>
<path d="M470 1055 l0 -76 63 3 62 3 3 73 3 72 -66 0 -65 0 0 -75z"/>
<path d="M687 1124 c-4 -4 -7 -38 -7 -76 l0 -69 63 3 62 3 0 70 0 70 -55 3
c-31 2 -59 0 -63 -4z"/>
<path d="M884 1117 c-3 -8 -4 -41 -2 -73 l3 -59 65 0 65 0 0 70 0 70 -63 3
c-46 2 -64 -1 -68 -11z"/>
<path d="M1097 1124 c-9 -9 -9 -106 -1 -128 5 -12 20 -16 59 -16 52 0 53 1 58
33 3 17 3 50 -1 72 -7 40 -7 40 -58 43 -27 2 -53 0 -57 -4z"/>
<path d="M1290 1055 l0 -75 64 0 c70 0 76 6 76 75 0 69 -6 75 -76 75 l-64 0 0
-75z"/>
</g>
</svg>
