<?xml version="1.0" standalone="no"?>
<!DOCTYPE svg PUBLIC "-//W3C//DTD SVG 20010904//EN"
 "http://www.w3.org/TR/2001/REC-SVG-20010904/DTD/svg10.dtd">
<svg version="1.0" xmlns="http://www.w3.org/2000/svg"
 width="300.000000pt" height="168.000000pt" viewBox="0 0 300.000000 168.000000"
 preserveAspectRatio="xMidYMid meet">
<metadata>
Created by potrace 1.15, written by Peter Selinger 2001-2017
</metadata>
<g transform="translate(0.000000,168.000000) scale(0.100000,-0.100000)"
fill="#000000" stroke="none">
<path d="M1930 1315 l0 -105 -845 0 -845 0 0 -260 0 -260 900 0 900 0 0 365 0
365 -55 0 -55 0 0 -105z"/>
<path d="M2140 975 l0 -385 -470 0 -471 0 26 -27 c14 -16 33 -54 42 -85 l16
-58 438 0 437 0 7 37 c14 76 61 139 130 176 51 28 164 30 211 5 70 -38 134
-127 134 -188 0 -28 2 -30 39 -30 56 0 89 15 97 44 3 14 7 119 7 233 2 197 1
210 -20 249 -12 23 -33 54 -46 70 -13 16 -31 59 -41 96 -26 97 -67 178 -110
216 l-37 32 -194 0 -195 0 0 -385z m392 175 c49 -99 108 -263 108 -300 0 -19
-5 -21 -52 -18 l-53 3 -24 71 -25 72 -105 12 c-58 6 -112 13 -118 16 -10 2
-13 36 -13 124 l0 121 118 -3 117 -3 47 -95z"/>
<path d="M448 569 c-111 -58 -120 -215 -17 -291 78 -58 187 -35 247 53 32 45
28 138 -7 187 -48 68 -149 91 -223 51z"/>
<path d="M964 576 c-80 -35 -121 -137 -89 -222 56 -146 275 -139 325 11 46
138 -101 269 -236 211z"/>
<path d="M2321 568 c-78 -42 -110 -133 -76 -215 30 -72 78 -104 154 -105 129
-1 213 121 163 234 -42 96 -150 135 -241 86z"/>
</g>
</svg>
