<?xml version="1.0" standalone="no"?>
<!DOCTYPE svg PUBLIC "-//W3C//DTD SVG 20010904//EN"
 "http://www.w3.org/TR/2001/REC-SVG-20010904/DTD/svg10.dtd">
<svg version="1.0" xmlns="http://www.w3.org/2000/svg"
 width="255.000000pt" height="50.000000pt" viewBox="0 0 255.000000 50.000000"
 preserveAspectRatio="xMidYMid meet">
<metadata>
Created by potrace 1.15, written by Peter Selinger 2001-2017
</metadata>
<g transform="translate(0.000000,50.000000) scale(0.100000,-0.100000)"
fill="#000000" stroke="none">
<path d="M2325 423 c-36 -9 -55 -34 -55 -73 0 -43 10 -57 68 -93 47 -31 55
-62 22 -92 -19 -17 -42 -17 -82 0 -14 6 -18 2 -18 -18 0 -29 16 -37 70 -37 84
0 129 94 76 157 -14 17 -39 36 -55 43 -33 13 -44 31 -34 56 5 12 15 15 44 11
36 -5 39 -3 39 19 0 14 -6 24 -14 24 -8 0 -20 2 -28 4 -7 2 -22 1 -33 -1z"/>
<path d="M100 265 l0 -155 25 0 c21 0 25 5 25 30 0 20 5 30 15 30 8 0 21 -13
30 -30 12 -23 22 -30 45 -30 l30 0 -26 39 -26 40 21 28 c31 41 37 93 16 137
-21 44 -59 66 -115 66 l-40 0 0 -155z"/>
<path d="M360 265 l0 -155 70 0 c63 0 70 2 70 20 0 17 -7 20 -50 20 -49 0 -50
1 -50 30 0 29 2 30 45 30 38 0 45 3 45 19 0 16 -8 20 -42 23 l-43 3 -3 63 -3
62 46 0 c38 0 45 3 45 20 0 18 -7 20 -65 20 l-65 0 0 -155z"/>
<path d="M590 265 l0 -155 48 0 c94 0 162 68 162 161 0 87 -68 149 -162 149
l-48 0 0 -155z m126 81 c29 -29 34 -41 34 -80 0 -57 -38 -106 -85 -109 l-30
-2 -3 113 -3 112 27 0 c16 0 39 -13 60 -34z"/>
<path d="M880 265 l0 -155 70 0 c63 0 70 2 70 20 0 17 -7 20 -50 20 -49 0 -50
1 -50 30 0 29 2 30 45 30 38 0 45 3 45 19 0 16 -8 20 -42 23 l-43 3 -3 63 -3
62 46 0 c38 0 45 3 45 20 0 18 -7 20 -65 20 l-65 0 0 -155z"/>
<path d="M1110 265 c0 -148 1 -155 20 -155 15 0 20 7 20 25 0 19 9 28 44 44
127 56 89 241 -49 241 l-35 0 0 -155z"/>
<path d="M1397 413 c-6 -9 -77 -286 -77 -297 0 -4 11 -6 25 -6 18 0 26 7 31
25 5 21 12 25 44 25 32 0 39 -4 44 -25 5 -18 13 -25 31 -25 23 0 25 3 18 27
-3 16 -21 84 -38 153 -27 107 -34 125 -52 128 -12 2 -24 -1 -26 -5z"/>
<path d="M1600 265 c0 -148 1 -155 20 -155 16 0 20 7 20 30 0 23 5 30 19 30
11 0 23 -12 31 -30 10 -24 19 -30 42 -30 31 0 31 1 -5 53 -19 28 -19 28 3 52
13 14 24 41 27 68 9 80 -42 137 -122 137 l-35 0 0 -155z"/>
<path d="M1820 400 c0 -15 7 -20 25 -20 l25 0 0 -135 0 -135 25 0 25 0 0 135
0 135 25 0 c18 0 25 5 25 20 0 18 -7 20 -75 20 -68 0 -75 -2 -75 -20z"/>
<path d="M2040 265 l0 -155 70 0 c63 0 70 2 70 20 0 17 -7 20 -45 20 -43 0
-45 1 -45 30 0 29 2 30 45 30 38 0 45 3 45 20 0 17 -7 20 -45 20 l-45 0 0 65
0 65 45 0 c38 0 45 3 45 20 0 18 -7 20 -70 20 l-70 0 0 -155z"/>
</g>
</svg>
